
<svg xmlns="http://www.w3.org/2000/svg" version="1.1" xmlns:xlink="http://www.w3.org/1999/xlink" preserveAspectRatio="none" x="0px" y="0px" width="3840px" height="2160px" viewBox="0 0 3840 2160">
<defs>
<g id="Layer1_0_FILL">
<path fill="#FFFFFF" stroke="none" d="
M 2747.15 761.4
L 2707.7 761.4 2655.55 1053 2695 1053 2747.15 761.4
M 2659.7 761.4
L 2620.05 761.4 2588.35 938.55
Q 2580 985.4 2559.3 1006.15 2538.65 1026.65 2500.75 1026.65 2462.65 1026.65 2449.35 1006.15 2436.05 985.4 2444.4 938.55
L 2476.1 761.4 2436.45 761.4 2403.9 943.45
Q 2393.7 1000.45 2416.85 1029.55 2439.75 1058.65 2495.05 1058.65 2550.1 1058.65 2583.65 1029.55 2616.95 1000.45 2627.15 943.45
L 2659.7 761.4
M 2212.05 761.4
L 2123 761.4 2070.85 1053 2110.3 1053 2132.35 929.75 2175.35 929.75
Q 2198.75 929.75 2210.75 939.35 2222.45 948.9 2231.7 978.2
L 2255.6 1053 2298 1053 2272.2 973.3
Q 2264.5 948.7 2255.1 934.65 2245.55 920.6 2233.6 916.3 2259.25 909.25 2275.4 891.1 2291.35 872.9 2296.3 845.4 2303.85 803.2 2282.95 782.3 2262.05 761.4 2212.05 761.4
M 2254.7 845.4
Q 2250.1 870.95 2233.3 884.25 2216.3 897.35 2187.75 897.35
L 2138.15 897.35 2156.65 793.8 2206.25 793.8
Q 2234.8 793.8 2247.1 806.9 2259.25 819.8 2254.7 845.4
M 2045.3 914.15
L 2051.25 880.95 1912.35 880.95 1927.75 794.6 2072.7 794.6 2078.65 761.4 1894.25 761.4 1842.1 1053 2030 1053 2035.95 1019.8 1887.5 1019.8 1906.4 914.15 2045.3 914.15
M 1849.3 783.85
Q 1831.45 770 1809.65 763.15 1787.65 756.15 1761.5 756.15 1695.3 756.15 1649.95 796.75 1604.6 837.2 1592.05 907.5 1579.5 977.6 1610.3 1018.25 1641.2 1058.65 1707.4 1058.65 1733.2 1058.65 1757.65 1051.65 1781.95 1044.6 1805.15 1030.55
L 1812.55 989.35
Q 1789.3 1007.9 1765.25 1017.05 1740.95 1026.25 1715.55 1026.25 1665.55 1026.25 1644.45 995.75 1623.3 965.1 1633.65 907.5 1643.95 849.7 1676 819.2 1708.05 788.55 1758.05 788.55 1783.45 788.55 1804.45 797.75 1825.25 806.9 1841.85 825.45
L 1849.3 783.85
M 1512.3 761.4
L 1467.55 761.4 1305.05 1051.3 1279.8 973.3
Q 1272.1 948.7 1262.7 934.65 1253.15 920.6 1241.2 916.3 1266.85 909.25 1283 891.1 1298.95 872.9 1303.9 845.4 1311.45 803.2 1290.55 782.3 1269.65 761.4 1219.65 761.4
L 1130.6 761.4 1078.45 1053 1117.9 1053 1139.95 929.75 1182.95 929.75
Q 1206.35 929.75 1218.35 939.35 1230.05 948.9 1239.3 978.2
L 1263.2 1053 1345.7 1053 1385.65 978.2 1517.1 978.2 1530.25 1053 1571.25 1053 1512.3 761.4
M 1254.7 806.9
Q 1266.85 819.8 1262.3 845.4 1257.7 870.95 1240.9 884.25 1223.9 897.35 1195.35 897.35
L 1145.75 897.35 1164.25 793.8 1213.85 793.8
Q 1242.4 793.8 1254.7 806.9
M 1482.85 800.25
L 1510.65 945.4 1403.4 945.4 1482.85 800.25 Z"/>
</g>
</defs>

<g transform="matrix( 1, 0, 0, 1, 0,0) ">
<use xlink:href="#Layer1_0_FILL"/>
</g>
</svg>
